<svg width="276" height="34" viewBox="0 0 276 34" fill="none" xmlns="http://www.w3.org/2000/svg">
<path d="M68.1768 4.99874C153.159 1.69478 202.407 -0.107376 275.828 7.25144L68.1768 4.99874Z" fill="#51C8FC"/>
<path d="M17.5771 8.90343C94.4518 8.00235 135.892 3.79735 247.901 13.2587L17.5771 8.90343Z" fill="#51C8FC"/>
<path d="M45.6553 12.2075C117.575 10.105 193.098 12.6579 258.562 25.5734L45.6553 12.2075Z" fill="#51C8FC"/>
<path d="M16.5264 12.2076C110.217 6.95127 188.744 6.95116 248.952 20.9179L16.5264 12.2076Z" fill="#51C8FC"/>
<path d="M0.460938 10.4051C69.9784 6.50045 158.564 1.54454 223.127 8.75318L0.460938 10.4051Z" fill="#51C8FC"/>
<path d="M89.9482 16.2622C150.457 15.5113 213.218 19.416 265.619 33.5329L89.9482 16.2622Z" fill="#51C8FC"/>
<path d="M11.8721 9.80438C60.219 3.34664 111.118 0.0428309 161.868 0.193011C173.579 0.193011 186.341 0.493224 195.2 3.79718" fill="#51C8FC"/>
</svg>
